<mxfile host="app.diagrams.net" modified="2022-03-27T17:51:50.544Z" agent="5.0 (Macintosh; Intel Mac OS X 10_15_7) AppleWebKit/537.36 (KHTML, like Gecko) Chrome/99.0.4844.83 Safari/537.36" etag="_A6nP8JJaHH19RsHvOX0" version="17.2.1" type="github">
  <diagram name="Page-1" id="2ca16b54-16f6-2749-3443-fa8db7711227">
    <mxGraphModel dx="2946" dy="1130" grid="1" gridSize="10" guides="1" tooltips="1" connect="1" arrows="1" fold="1" page="0" pageScale="1" pageWidth="1100" pageHeight="850" background="none" math="0" shadow="0">
      <root>
        <mxCell id="0" />
        <mxCell id="1" parent="0" />
        <mxCell id="2ed32ef02a7f4228-4" value="&lt;div style=&quot;box-sizing: border-box ; width: 100% ; background: #e4e4e4 ; padding: 2px&quot;&gt;Chefs&lt;/div&gt;&lt;table style=&quot;width: 100% ; font-size: 1em&quot; cellpadding=&quot;2&quot; cellspacing=&quot;0&quot;&gt;&lt;tbody&gt;&lt;tr&gt;&lt;td&gt;_id&lt;/td&gt;&lt;td&gt;uniqueId&lt;/td&gt;&lt;td&gt;required&lt;/td&gt;&lt;/tr&gt;&lt;tr&gt;&lt;td&gt;string&lt;/td&gt;&lt;td&gt;username&lt;/td&gt;&lt;td&gt;required&lt;br&gt;&lt;/td&gt;&lt;/tr&gt;&lt;tr&gt;&lt;td&gt;string&lt;/td&gt;&lt;td&gt;firstName&lt;/td&gt;&lt;td&gt;required&lt;br&gt;&lt;/td&gt;&lt;/tr&gt;&lt;tr&gt;&lt;td&gt;name&lt;/td&gt;&lt;td&gt;lastName&lt;br&gt;&lt;/td&gt;&lt;td&gt;required&lt;br&gt;&lt;/td&gt;&lt;/tr&gt;&lt;tr&gt;&lt;td&gt;boolean&lt;/td&gt;&lt;td&gt;private&lt;/td&gt;&lt;td&gt;required&lt;br&gt;&lt;/td&gt;&lt;/tr&gt;&lt;tr&gt;&lt;td&gt;[obj]&lt;br&gt;&lt;/td&gt;&lt;td&gt;recipesCreated&lt;/td&gt;&lt;td&gt;no&lt;/td&gt;&lt;/tr&gt;&lt;tr&gt;&lt;td&gt;[obj]&lt;br&gt;&lt;/td&gt;&lt;td&gt;recipesSaved&lt;/td&gt;&lt;td&gt;no&lt;/td&gt;&lt;/tr&gt;&lt;tr&gt;&lt;td&gt;string&lt;/td&gt;&lt;td&gt;password&lt;/td&gt;&lt;td&gt;required&lt;br&gt;&lt;/td&gt;&lt;/tr&gt;&lt;tr&gt;&lt;td&gt;[obj]&lt;br&gt;&lt;/td&gt;&lt;td&gt;family&lt;/td&gt;&lt;td&gt;no&lt;/td&gt;&lt;/tr&gt;&lt;/tbody&gt;&lt;/table&gt;" style="verticalAlign=top;align=left;overflow=fill;html=1;rounded=0;shadow=0;comic=0;labelBackgroundColor=none;strokeWidth=1;fontFamily=Verdana;fontSize=12" parent="1" vertex="1">
          <mxGeometry x="90" y="70" width="240" height="260" as="geometry" />
        </mxCell>
        <mxCell id="nD4opCiTAH2ZllQkiQKj-14" value="&lt;div style=&quot;box-sizing: border-box ; width: 100% ; background: #e4e4e4 ; padding: 2px&quot;&gt;Recipe&lt;br&gt;&lt;/div&gt;&lt;table style=&quot;width: 100% ; font-size: 1em&quot; cellpadding=&quot;2&quot; cellspacing=&quot;0&quot;&gt;&lt;tbody&gt;&lt;tr&gt;&lt;td&gt;_id&lt;/td&gt;&lt;td&gt;uniqueId&lt;/td&gt;&lt;td&gt;required&lt;/td&gt;&lt;/tr&gt;&lt;tr&gt;&lt;td&gt;string&lt;/td&gt;&lt;td&gt;name&lt;/td&gt;&lt;td&gt;required&lt;br&gt;&lt;/td&gt;&lt;/tr&gt;&lt;tr&gt;&lt;td&gt;string&lt;br&gt;&lt;/td&gt;&lt;td&gt;difficulty&lt;/td&gt;&lt;td&gt;required&lt;br&gt;&lt;/td&gt;&lt;/tr&gt;&lt;tr&gt;&lt;td&gt;number&lt;/td&gt;&lt;td&gt;totalTime&lt;/td&gt;&lt;td&gt;no&lt;/td&gt;&lt;/tr&gt;&lt;tr&gt;&lt;td&gt;[obj]&lt;br&gt;&lt;/td&gt;&lt;td&gt;steps&lt;/td&gt;&lt;td&gt;yes&lt;/td&gt;&lt;/tr&gt;&lt;tr&gt;&lt;td&gt;[obj]&lt;br&gt;&lt;/td&gt;&lt;td&gt;pictures&lt;/td&gt;&lt;td&gt;no&lt;/td&gt;&lt;/tr&gt;&lt;tr&gt;&lt;td&gt;[obj]&lt;br&gt;&lt;/td&gt;&lt;td&gt;comments&lt;/td&gt;&lt;td&gt;no&lt;/td&gt;&lt;/tr&gt;&lt;tr&gt;&lt;td&gt;string&lt;/td&gt;&lt;td&gt;chef&lt;/td&gt;&lt;td&gt;required&lt;/td&gt;&lt;/tr&gt;&lt;tr&gt;&lt;td&gt;&lt;br&gt;&lt;/td&gt;&lt;td&gt;&lt;br&gt;&lt;/td&gt;&lt;td&gt;&lt;br&gt;&lt;/td&gt;&lt;/tr&gt;&lt;/tbody&gt;&lt;/table&gt;" style="verticalAlign=top;align=left;overflow=fill;html=1;rounded=0;shadow=0;comic=0;labelBackgroundColor=none;strokeWidth=1;fontFamily=Verdana;fontSize=12" vertex="1" parent="1">
          <mxGeometry x="440" y="60" width="220" height="240" as="geometry" />
        </mxCell>
        <mxCell id="nD4opCiTAH2ZllQkiQKj-18" value="&lt;div style=&quot;box-sizing: border-box ; width: 100% ; background: #e4e4e4 ; padding: 2px&quot;&gt;picture&lt;br&gt;&lt;/div&gt;&lt;table style=&quot;width: 100% ; font-size: 1em&quot; cellpadding=&quot;1&quot; cellspacing=&quot;0&quot;&gt;&lt;tbody&gt;&lt;tr&gt;&lt;td&gt;_id&lt;/td&gt;&lt;td&gt;uniqueId&lt;/td&gt;&lt;td&gt;required&lt;/td&gt;&lt;/tr&gt;&lt;tr&gt;&lt;td&gt;string&lt;/td&gt;&lt;td&gt;url&lt;/td&gt;&lt;td&gt;required&lt;/td&gt;&lt;/tr&gt;&lt;tr&gt;&lt;td&gt;string&lt;/td&gt;&lt;td&gt;description&lt;/td&gt;&lt;td&gt;&lt;br&gt;&lt;/td&gt;&lt;/tr&gt;&lt;tr&gt;&lt;td&gt;[obj]&lt;/td&gt;&lt;td&gt;comments&lt;/td&gt;&lt;td&gt;&lt;br&gt;&lt;/td&gt;&lt;/tr&gt;&lt;/tbody&gt;&lt;/table&gt;" style="verticalAlign=top;align=left;overflow=fill;html=1;rounded=0;shadow=0;comic=0;labelBackgroundColor=none;strokeWidth=1;fontFamily=Verdana;fontSize=12" vertex="1" parent="1">
          <mxGeometry x="100" y="430" width="180" height="110" as="geometry" />
        </mxCell>
        <mxCell id="nD4opCiTAH2ZllQkiQKj-19" value="&lt;div style=&quot;box-sizing: border-box ; width: 100% ; background: #e4e4e4 ; padding: 2px&quot;&gt;comment&lt;br&gt;&lt;/div&gt;&lt;div style=&quot;box-sizing: border-box ; width: 100% ; background: #e4e4e4 ; padding: 2px&quot;&gt;&lt;br&gt;&lt;/div&gt;&lt;table style=&quot;width: 100% ; font-size: 1em&quot; cellpadding=&quot;1&quot; cellspacing=&quot;0&quot;&gt;&lt;tbody&gt;&lt;tr&gt;&lt;td&gt;_id&lt;/td&gt;&lt;td&gt;uniqueId&lt;/td&gt;&lt;td&gt;required&lt;/td&gt;&lt;/tr&gt;&lt;tr&gt;&lt;td&gt;string&lt;/td&gt;&lt;td&gt;user&lt;/td&gt;&lt;td&gt;required&lt;/td&gt;&lt;/tr&gt;&lt;tr&gt;&lt;td&gt;user&lt;/td&gt;&lt;td&gt;comment&lt;/td&gt;&lt;td&gt;required&lt;/td&gt;&lt;/tr&gt;&lt;tr&gt;&lt;td&gt;&lt;br&gt;&lt;/td&gt;&lt;td&gt;&lt;br&gt;&lt;/td&gt;&lt;td&gt;&lt;br&gt;&lt;/td&gt;&lt;/tr&gt;&lt;/tbody&gt;&lt;/table&gt;" style="verticalAlign=top;align=left;overflow=fill;html=1;rounded=0;shadow=0;comic=0;labelBackgroundColor=none;strokeWidth=1;fontFamily=Verdana;fontSize=12" vertex="1" parent="1">
          <mxGeometry x="760" y="430" width="180" height="110" as="geometry" />
        </mxCell>
        <mxCell id="nD4opCiTAH2ZllQkiQKj-21" value="&lt;div style=&quot;box-sizing: border-box ; width: 100% ; background: #e4e4e4 ; padding: 2px&quot;&gt;Step&lt;/div&gt;&lt;table style=&quot;width: 100% ; font-size: 1em&quot; cellpadding=&quot;1&quot; cellspacing=&quot;0&quot;&gt;&lt;tbody&gt;&lt;tr&gt;&lt;td&gt;_id&lt;/td&gt;&lt;td&gt;uniqueId&lt;/td&gt;&lt;td&gt;required&lt;/td&gt;&lt;/tr&gt;&lt;tr&gt;&lt;td&gt;number&lt;/td&gt;&lt;td&gt;stepNumber&lt;/td&gt;&lt;td&gt;required&lt;/td&gt;&lt;/tr&gt;&lt;tr&gt;&lt;td&gt;string&lt;/td&gt;&lt;td&gt;description&lt;/td&gt;&lt;td&gt;required&lt;/td&gt;&lt;/tr&gt;&lt;tr&gt;&lt;td&gt;[obj]&lt;/td&gt;&lt;td&gt;pictures&lt;/td&gt;&lt;td&gt;no&lt;/td&gt;&lt;/tr&gt;&lt;tr&gt;&lt;td&gt;[obj]&lt;br&gt;&lt;/td&gt;&lt;td&gt;comments&lt;/td&gt;&lt;td&gt;no&lt;/td&gt;&lt;/tr&gt;&lt;/tbody&gt;&lt;/table&gt;" style="verticalAlign=top;align=left;overflow=fill;html=1;rounded=0;shadow=0;comic=0;labelBackgroundColor=none;strokeWidth=1;fontFamily=Verdana;fontSize=12" vertex="1" parent="1">
          <mxGeometry x="450" y="430" width="230" height="110" as="geometry" />
        </mxCell>
      </root>
    </mxGraphModel>
  </diagram>
</mxfile>
